<svg id="Icons" height="512" viewBox="0 0 74 74" width="512" xmlns="http://www.w3.org/2000/svg"><path d="m12.968 8.98a1 1 0 0 1 -.707-.292l-4.267-4.268-4.267 4.268a1 1 0 0 1 -1.415-1.415l4.975-4.973a1 1 0 0 1 1.413 0l4.974 4.974a1 1 0 0 1 -.707 1.707z"/><path d="m70.994 67.006h-63a1 1 0 0 1 -1-1v-63a1 1 0 0 1 2 0v62h62a1 1 0 0 1 0 2z"/><path d="m65.994 71.98a1 1 0 0 1 -.707-1.707l4.266-4.267-4.266-4.267a1 1 0 1 1 1.413-1.414l4.974 4.975a1 1 0 0 1 0 1.414l-4.974 4.974a1 1 0 0 1 -.706.292z"/><path d="m56.215 71.994a1 1 0 0 1 -1-1v-4.988a1 1 0 0 1 2 0v4.988a1 1 0 0 1 -1 1z"/><path d="m48.006 69.994a1 1 0 0 1 -1-1v-2.988a1 1 0 0 1 2 0v2.988a1 1 0 0 1 -1 1z"/><path d="m39.8 71.994a1 1 0 0 1 -1-1v-4.988a1 1 0 0 1 2 0v4.988a1 1 0 0 1 -1 1z"/><path d="m31.59 69.994a1 1 0 0 1 -1-1v-2.988a1 1 0 0 1 2 0v2.988a1 1 0 0 1 -1 1z"/><path d="m23.381 71.994a1 1 0 0 1 -1-1v-4.988a1 1 0 0 1 2 0v4.988a1 1 0 0 1 -1 1z"/><path d="m15.173 69.994a1 1 0 0 1 -1-1v-2.988a1 1 0 1 1 2 0v2.988a1 1 0 0 1 -1 1z"/><path d="m7.994 18.473h-4.988a1 1 0 0 1 0-2h4.988a1 1 0 0 1 0 2z"/><path d="m7.994 26.681h-2.988a1 1 0 0 1 0-2h2.988a1 1 0 0 1 0 2z"/><path d="m7.994 34.889h-4.988a1 1 0 0 1 0-2h4.988a1 1 0 0 1 0 2z"/><path d="m7.994 43.1h-2.988a1 1 0 0 1 0-2h2.988a1 1 0 0 1 0 2z"/><path d="m7.994 51.306h-4.988a1 1 0 0 1 0-2h4.988a1 1 0 0 1 0 2z"/><path d="m7.994 59.514h-2.988a1 1 0 0 1 0-2h2.988a1 1 0 1 1 0 2z"/><path d="m59.714 53.529a1 1 0 0 1 -1-1v-13.129a1 1 0 0 1 2 0v13.129a1 1 0 0 1 -1 1z"/><path d="m59.714 26.159a1 1 0 0 1 -1-1v-7.787a1 1 0 0 1 2 0v7.787a1 1 0 0 1 -1 1z"/><path d="m46.571 53.529a1 1 0 0 1 -1-1v-6.013a1 1 0 1 1 2 0v6.013a1 1 0 0 1 -1 1z"/><path d="m46.571 33.278a1 1 0 0 1 -1-1v-14.906a1 1 0 0 1 2 0v14.906a1 1 0 0 1 -1 1z"/><path d="m63 40.4h-6.571a1 1 0 0 1 -1-1v-14.241a1 1 0 0 1 1-1h6.571a1 1 0 0 1 1 1v14.241a1 1 0 0 1 -1 1zm-5.571-2h4.571v-12.241h-4.571z"/><path d="m49.857 47.516h-6.571a1 1 0 0 1 -1-1v-14.238a1 1 0 0 1 1-1h6.571a1 1 0 0 1 1 1v1.775a1 1 0 0 1 -2 0v-.775h-4.571v12.238h4.571v-.775a1 1 0 0 1 2 0v1.775a1 1 0 0 1 -1 1z"/><path d="m49.857 41.741a1 1 0 0 1 -1-1v-2.688a1 1 0 0 1 2 0v2.688a1 1 0 0 1 -1 1z"/><path d="m33.429 53.529a1 1 0 0 1 -1-1v-13.129a1 1 0 0 1 2 0v13.129a1 1 0 0 1 -1 1z"/><path d="m33.429 26.159a1 1 0 0 1 -1-1v-7.787a1 1 0 0 1 2 0v7.787a1 1 0 0 1 -1 1z"/><path d="m20.286 53.529a1 1 0 0 1 -1-1v-6.013a1 1 0 1 1 2 0v6.013a1 1 0 0 1 -1 1z"/><path d="m20.286 33.278a1 1 0 0 1 -1-1v-14.906a1 1 0 0 1 2 0v14.906a1 1 0 0 1 -1 1z"/><path d="m36.714 40.4h-6.571a1 1 0 0 1 -1-1v-14.241a1 1 0 0 1 1-1h6.571a1 1 0 0 1 1 1v14.241a1 1 0 0 1 -1 1zm-5.571-2h4.571v-12.241h-4.571z"/><path d="m23.571 47.516h-6.571a1 1 0 0 1 -1-1v-14.238a1 1 0 0 1 1-1h6.571a1 1 0 0 1 1 1v14.238a1 1 0 0 1 -1 1zm-5.571-2h4.571v-12.238h-4.571z"/></svg>