<?xml version="1.0" encoding="iso-8859-1"?>
<!-- Generator: Adobe Illustrator 19.0.0, SVG Export Plug-In . SVG Version: 6.00 Build 0)  -->
<svg version="1.1" id="Layer_1" xmlns="http://www.w3.org/2000/svg" xmlns:xlink="http://www.w3.org/1999/xlink" x="0px" y="0px"
	 viewBox="0 0 500.004 500.004" style="enable-background:new 0 0 500.004 500.004;" xml:space="preserve">
<g>
	<g>
		<path d="M495.484,464.438H35.308V4.258c0-2.212-1.792-4-4-4s-4,1.788-4,4v464.18c0,2.212,1.792,4,4,4h464.176c2.208,0,4-1.788,4-4
			S497.692,464.438,495.484,464.438z"/>
	</g>
</g>
<g>
	<g>
		<path d="M31.308,464.442c-2.208,0-4,1.788-4,4v27.304c0,2.212,1.792,4,4,4s4-1.792,4-4v-27.304
			C35.308,466.23,33.516,464.442,31.308,464.442z"/>
	</g>
</g>
<g>
	<g>
		<path d="M74.212,464.442c-2.208,0-4,1.788-4,4v27.304c0,2.212,1.792,4,4,4c2.208,0,4-1.792,4-4v-27.304
			C78.212,466.23,76.42,464.442,74.212,464.442z"/>
	</g>
</g>
<g>
	<g>
		<path d="M117.12,464.442c-2.208,0-4,1.788-4,4v27.304c0,2.212,1.792,4,4,4s4-1.792,4-4v-27.304
			C121.12,466.23,119.328,464.442,117.12,464.442z"/>
	</g>
</g>
<g>
	<g>
		<path d="M160.028,464.442c-2.208,0-4,1.788-4,4v27.304c0,2.212,1.792,4,4,4s4-1.792,4-4v-27.304
			C164.028,466.23,162.236,464.442,160.028,464.442z"/>
	</g>
</g>
<g>
	<g>
		<path d="M202.936,464.442c-2.208,0-4,1.788-4,4v27.304c0,2.212,1.792,4,4,4c2.208,0,4-1.792,4-4v-27.304
			C206.936,466.23,205.144,464.442,202.936,464.442z"/>
	</g>
</g>
<g>
	<g>
		<path d="M245.84,464.442c-2.208,0-4,1.788-4,4v27.304c0,2.212,1.792,4,4,4c2.212,0,4-1.792,4-4v-27.304
			C249.84,466.23,248.048,464.442,245.84,464.442z"/>
	</g>
</g>
<g>
	<g>
		<path d="M288.748,464.442c-2.208,0-4,1.788-4,4v27.304c0,2.212,1.792,4,4,4s4-1.792,4-4v-27.304
			C292.748,466.23,290.956,464.442,288.748,464.442z"/>
	</g>
</g>
<g>
	<g>
		<path d="M331.656,464.442c-2.208,0-4,1.788-4,4v27.304c0,2.212,1.792,4,4,4c2.212,0,4-1.792,4-4v-27.304
			C335.656,466.23,333.864,464.442,331.656,464.442z"/>
	</g>
</g>
<g>
	<g>
		<path d="M460.376,464.442c-2.208,0-4,1.788-4,4v27.304c0,2.212,1.792,4,4,4s4-1.792,4-4v-27.304
			C464.376,466.23,462.584,464.442,460.376,464.442z"/>
	</g>
</g>
<g>
	<g>
		<path d="M374.564,464.442c-2.208,0-4,1.788-4,4v27.304c0,2.212,1.792,4,4,4s4-1.792,4-4v-27.304
			C378.564,466.23,376.772,464.442,374.564,464.442z"/>
	</g>
</g>
<g>
	<g>
		<path d="M417.472,464.442c-2.208,0-4,1.788-4,4v27.304c0,2.212,1.792,4,4,4s4-1.792,4-4v-27.304
			C421.472,466.23,419.68,464.442,417.472,464.442z"/>
	</g>
</g>
<g>
	<g>
		<path d="M31.304,464.438H4c-2.208,0-4,1.788-4,4c0,2.212,1.792,4,4,4h27.308c2.208,0,3.996-1.788,3.996-4
			S33.512,464.438,31.304,464.438z"/>
	</g>
</g>
<g>
	<g>
		<path d="M31.304,421.53H4c-2.208,0-4,1.788-4,4c0,2.212,1.792,4,4,4h27.308c2.208,0,3.996-1.788,3.996-4
			C35.304,423.318,33.512,421.53,31.304,421.53z"/>
	</g>
</g>
<g>
	<g>
		<path d="M31.304,378.622H4c-2.208,0-4,1.788-4,4c0,2.212,1.792,4,4,4h27.308c2.208,0,3.996-1.788,3.996-4
			C35.304,380.41,33.512,378.622,31.304,378.622z"/>
	</g>
</g>
<g>
	<g>
		<path d="M31.304,335.718H4c-2.208,0-4,1.788-4,4c0,2.212,1.792,4,4,4h27.308c2.208,0,3.996-1.788,3.996-4
			C35.304,337.506,33.512,335.718,31.304,335.718z"/>
	</g>
</g>
<g>
	<g>
		<path d="M31.304,292.81H4c-2.208,0-4,1.788-4,4c0,2.212,1.792,4,4,4h27.308c2.208,0,3.996-1.788,3.996-4
			C35.304,294.598,33.512,292.81,31.304,292.81z"/>
	</g>
</g>
<g>
	<g>
		<path d="M31.304,249.906H4c-2.208,0-4,1.788-4,4c0,2.212,1.792,4,4,4h27.308c2.208,0,3.996-1.788,3.996-4
			C35.304,251.694,33.512,249.906,31.304,249.906z"/>
	</g>
</g>
<g>
	<g>
		<path d="M31.304,206.994H4c-2.208,0-4,1.788-4,4c0,2.212,1.792,4,4,4h27.308c2.208,0,3.996-1.788,3.996-4
			C35.304,208.782,33.512,206.994,31.304,206.994z"/>
	</g>
</g>
<g>
	<g>
		<path d="M31.304,164.086H4c-2.208,0-4,1.788-4,4c0,2.212,1.792,4,4,4h27.308c2.208,0,3.996-1.788,3.996-4
			C35.304,165.874,33.512,164.086,31.304,164.086z"/>
	</g>
</g>
<g>
	<g>
		<path d="M31.304,35.366H4c-2.208,0-4,1.788-4,4c0,2.212,1.792,4,4,4h27.308c2.208,0,3.996-1.788,3.996-4
			C35.304,37.154,33.512,35.366,31.304,35.366z"/>
	</g>
</g>
<g>
	<g>
		<path d="M31.304,121.182H4c-2.208,0-4,1.788-4,4c0,2.212,1.792,4,4,4h27.308c2.208,0,3.996-1.788,3.996-4
			C35.304,122.97,33.512,121.182,31.304,121.182z"/>
	</g>
</g>
<g>
	<g>
		<path d="M31.304,78.274H4c-2.208,0-4,1.788-4,4c0,2.212,1.792,4,4,4h27.308c2.208,0,3.996-1.788,3.996-4
			C35.304,80.062,33.512,78.274,31.304,78.274z"/>
	</g>
</g>
<g>
	<g>
		<path d="M129.22,319.21c-10.956,0-19.872,8.916-19.872,19.876c0,10.956,8.912,19.872,19.872,19.872
			c10.956,0,19.872-8.912,19.872-19.872S140.176,319.21,129.22,319.21z M129.22,350.962c-6.544,0-11.872-5.324-11.872-11.872
			c0-6.548,5.324-11.876,11.872-11.876c6.544,0,11.872,5.328,11.872,11.876C141.092,345.638,135.764,350.962,129.22,350.962z"/>
	</g>
</g>
<g>
	<g>
		<path d="M230.72,361.21c-10.956,0-19.872,8.916-19.872,19.876c0,10.956,8.912,19.872,19.872,19.872
			c10.956,0,19.872-8.912,19.872-19.872S241.676,361.21,230.72,361.21z M230.72,392.962c-6.544,0-11.872-5.324-11.872-11.872
			c0-6.548,5.324-11.876,11.872-11.876c6.544,0,11.872,5.328,11.872,11.876C242.592,387.638,237.264,392.962,230.72,392.962z"/>
	</g>
</g>
<g>
	<g>
		<path d="M332.264,205.838c-10.956,0-19.872,8.916-19.872,19.876c0,10.956,8.916,19.872,19.872,19.872
			c10.956,0,19.872-8.912,19.872-19.872C352.136,214.754,343.22,205.838,332.264,205.838z M332.264,237.59
			c-6.544,0-11.872-5.324-11.872-11.872c0-6.548,5.328-11.876,11.872-11.876s11.872,5.328,11.872,11.876
			C344.136,232.266,338.808,237.59,332.264,237.59z"/>
	</g>
</g>
<g>
	<g>
		<path d="M480.128,104.39c-10.956,0-19.872,8.92-19.872,19.88c0,10.956,8.916,19.872,19.872,19.872S500,135.23,500.004,124.27
			C500.004,113.306,491.088,104.39,480.128,104.39z M480.128,136.146c-6.544,0-11.872-5.324-11.872-11.872
			c0-6.552,5.328-11.88,11.872-11.88c6.548,0,11.872,5.328,11.876,11.88C492.004,130.822,486.676,136.146,480.128,136.146z"/>
	</g>
</g>
<g>
	<g>
		<path d="M316.032,250.554c-1.848-1.208-4.328-0.688-5.536,1.16l-74.444,113.908c-1.208,1.848-0.688,4.328,1.16,5.536
			c0.676,0.44,1.432,0.652,2.184,0.652c1.304,0,2.584-0.636,3.352-1.812l74.444-113.908
			C318.4,254.242,317.88,251.762,316.032,250.554z"/>
	</g>
</g>
<g>
	<g>
		<path d="M201.412,365.378l-56.016-23.768c-2.036-0.856-4.384,0.084-5.244,2.12c-0.864,2.036,0.088,4.384,2.12,5.248l56.016,23.768
			c0.508,0.216,1.04,0.316,1.56,0.316c1.556,0,3.036-0.916,3.684-2.436C204.396,368.59,203.444,366.242,201.412,365.378z"/>
	</g>
</g>
<g>
	<g>
		<path d="M113.576,360.082c-1.776-1.324-4.276-0.952-5.596,0.816L30.316,465.094c-1.32,1.768-0.956,4.276,0.816,5.596
			c0.72,0.536,1.556,0.792,2.388,0.792c1.22,0,2.424-0.556,3.208-1.608l77.664-104.196
			C115.712,363.91,115.348,361.402,113.576,360.082z"/>
	</g>
</g>
<g>
	<g>
		<path d="M457.2,140.002c-1.248-1.824-3.74-2.288-5.564-1.036l-108.556,74.48c-1.82,1.252-2.284,3.74-1.036,5.56
			c0.776,1.136,2.028,1.74,3.304,1.74c0.78,0,1.568-0.228,2.26-0.704l108.556-74.48C457.984,144.31,458.448,141.822,457.2,140.002z"
			/>
	</g>
</g>
<g>
</g>
<g>
</g>
<g>
</g>
<g>
</g>
<g>
</g>
<g>
</g>
<g>
</g>
<g>
</g>
<g>
</g>
<g>
</g>
<g>
</g>
<g>
</g>
<g>
</g>
<g>
</g>
<g>
</g>
</svg>
